<svg xmlns="http://www.w3.org/2000/svg" viewBox="0 0 1024 1024" fill="#b3b3b3">
	<path d="M622 320v40c38-24 82-38 150-38 220 0 248 164 248 307v391l-254 3v-374c0-63-23-75-65-75-40 0-65 12-65 75v374l-259-2V320h245zM256 320v704H0V320h256zm-64 64H64v576h128V384zm430 0H448v573l130 1v-309c0-121 80-139 128-139 58 0 128 24 128 139v309l127-1V631c0-178-50-244-185-244-81 0-116 24-151 53l-9 7h6v-63zM128 0c70 0 128 58 128 128s-58 128-128 128S0 198 0 128 58 0 128 0zm0 64c-35 0-64 29-64 64s29 64 64 64 64-29 64-64-29-64-64-64z"/>
</svg>